<svg width="400" height="400" viewBox="0 0 400 400" fill="none" xmlns="http://www.w3.org/2000/svg">
<path d="M166.453 236.949C148.376 218.873 148.376 189.566 166.453 171.49C184.53 153.414 213.838 153.414 231.915 171.49C249.991 189.566 249.991 218.873 231.915 236.949C213.838 255.026 184.53 255.026 166.453 236.949Z" fill="black"/>
<path d="M276.366 400H125.104C90.5573 400 62.5516 371.995 62.5516 337.45H276.366V400Z" fill="black"/>
<path d="M62.5516 337.45C28.0048 337.45 0 309.445 0 274.9V129.897H62.5525L62.5516 337.45Z" fill="black"/>
<path d="M123.634 0H274.896C309.443 0 337.448 28.0048 337.448 62.5504H123.634V0Z" fill="black"/>
<path d="M337.448 62.5504C371.995 62.5504 400 90.5548 400 125.1V270.103H337.447L337.448 62.5504Z" fill="black"/>
</svg>
