<svg width="1551" height="400" viewBox="0 0 1551 400" fill="none" xmlns="http://www.w3.org/2000/svg">
<path d="M121.685 400H56.1466C40.6235 400 28.0586 387.447 28.0586 371.938H121.655V400H121.685Z" fill="black"/>
<path d="M28.0575 371.968H25.7092C11.4975 371.968 0 360.451 0 346.283V278.458H28.0575V371.968Z" fill="black"/>
<path d="M1429.32 0H1494.86C1510.38 0 1522.94 12.5533 1522.94 28.0622H1429.35V0H1429.32Z" fill="black"/>
<path d="M1522.94 28.0626H1525.29C1539.5 28.0626 1551 39.58 1551 53.7482V121.573H1522.94V28.0626Z" fill="black"/>
<path d="M796.56 155.394C789.393 143.024 780.122 133.67 768.258 126.784C756.242 119.837 742.549 116.302 727.575 116.302C712.601 116.302 698.633 119.837 686.587 126.784C674.784 133.609 665.33 143.481 658.56 156.095C651.942 168.709 648.709 182.573 648.709 198.539C648.709 214.505 652.033 228.856 658.56 241.287C665.208 253.962 674.54 263.895 686.282 270.873C698.023 277.85 711.381 281.385 726.05 281.385C758.499 281.385 768.96 260.026 771.156 251.22C801.043 239.124 806.807 210.391 806.807 196.376C806.807 181.415 803.391 167.643 796.621 155.425L796.56 155.394ZM724.464 256.979C707.66 255.181 677.315 243.908 677.315 199.148C677.315 187.753 679.389 177.759 683.659 168.649C687.898 159.873 693.906 153.048 701.561 148.356C709.734 143.329 718.456 140.891 728.185 140.891C742.793 140.891 754.931 146.406 764.324 157.283C773.687 168.161 778.444 183.396 778.444 202.561C778.444 219.258 776.462 236.93 771.125 251.22C771.125 251.22 749.533 259.691 724.464 257.009V256.979Z" fill="black"/>
<path d="M587.623 141.775C585.884 122.214 567.189 116.272 559.016 116.272C530.135 116.272 509.763 143.908 506.134 153.749C502.932 143.481 497.351 134.889 489.574 128.216C480.333 120.294 467.433 116.272 456.698 116.272C427.146 116.272 409 140.648 403.968 150.611L402.321 119.38H376.276V278.277H404.273V186.747C410.189 171.391 429.372 140.861 453.892 140.861C461.547 140.861 468.134 144.456 473.471 151.555C478.808 158.96 481.797 168.283 481.797 179.283V278.277H509.794V183.183C518.424 167.857 526.811 157.223 535.442 150.702C544.072 144.151 553.923 140.221 564.719 139.581C576.491 138.911 587.653 141.775 587.653 141.775V278.277H615.65V182.147C615.65 160.635 607.049 147.046 587.653 141.775H587.623Z" fill="black"/>
<path d="M150.2 57.3434H122.203V278.276H150.2V57.3434Z" fill="black"/>
<path d="M1131.36 121.482L1083.66 278.276L1035.93 121.482H1004.64L1052.34 278.276H1083.66L1060.45 350.153H1091.74L1162.68 121.482H1131.36Z" fill="black"/>
<path d="M328.732 152.591C322.327 141.044 313.574 132.299 302.016 125.9C290.366 119.441 277.374 116.272 262.308 116.272C247.243 116.272 232.696 119.715 220.68 126.54C208.542 133.579 199.118 143.298 192.744 155.425C186.157 167.643 182.833 181.842 182.833 197.595C182.833 227.881 203.113 245.34 218.484 251.19C225.62 276.358 248.707 281.355 266.212 281.355C307.536 281.355 333.794 248.478 336.478 232.573H307.81C301.711 246.132 284.968 254.572 261.942 256.278C252.732 256.949 234.647 258.137 218.514 251.19C213.055 237.448 211.774 222.244 211.774 207.314H338.125C338.125 207.314 338.43 202.226 338.43 191.958C338.43 177.302 335.197 164.048 328.793 152.561L328.732 152.591ZM212.811 189.155C214.58 174.103 219.673 162.585 228.304 153.963C237.179 145.096 248.219 140.769 262.003 140.769C275.788 140.769 287.713 145.401 296.587 154.541C304.791 163.652 309.152 175.291 309.488 189.155H212.811Z" fill="black"/>
<path d="M843.343 152.437V179.31C843.343 168.707 847.734 159.688 843.343 152.437Z" fill="black"/>
<path d="M956.944 141.775V278.278H984.941V182.147C984.941 160.636 976.341 147.046 956.944 141.775Z" fill="black"/>
<path d="M928.339 116.302C896.103 114.199 874.663 140.616 871.034 150.458L869.387 119.41H843.343V278.307H871.339V186.777C891.01 141.805 923.215 140.22 934.011 139.611C945.783 138.94 956.945 141.805 956.945 141.805C955.207 122.243 936.512 116.85 928.339 116.302Z" fill="black"/>
<path fill-rule="evenodd" clip-rule="evenodd" d="M1226.51 165.751L1255.88 164.959C1255.88 164.959 1261.46 141.132 1296.68 141.132C1323.22 141.132 1333.92 155.635 1334.81 177.147C1334.84 178.078 1334.88 179.087 1334.91 180.163H1317.61C1256.67 180.163 1227.85 190.401 1219.47 211.334C1210.71 233.138 1220.69 246.829 1238.18 253.032C1242 269.288 1256.98 281.21 1284.79 280.864C1303.9 280.619 1321.43 269.006 1334.98 252.671L1336.42 278.304H1362.44V185.83C1362.44 132.783 1327.61 116.178 1290.62 116.178C1248.38 116.178 1226.51 145.062 1226.51 165.751ZM1335.15 197.86C1295.71 196.826 1250.97 198.473 1240.6 226.385C1237.14 235.69 1236.27 244.903 1238.18 253.032C1258.76 260.334 1289.75 257.257 1312.82 244.819C1335.36 232.654 1334.96 211.558 1334.82 204.001L1334.82 204C1334.82 203.916 1334.82 203.834 1334.82 203.753C1334.81 203.403 1334.81 203.085 1334.81 202.802C1334.8 202.235 1334.93 201.62 1335.16 200.969C1335.15 199.923 1335.15 198.885 1335.15 197.86Z" fill="black"/>
<path d="M1177.26 278.734C1188.31 278.734 1197.26 269.785 1197.26 258.746C1197.26 247.707 1188.31 238.758 1177.26 238.758C1166.21 238.758 1157.25 247.707 1157.25 258.746C1157.25 269.785 1166.21 278.734 1177.26 278.734Z" fill="black"/>
<path d="M1429.32 119.654H1401.38V278.064H1429.32V119.654Z" fill="black"/>
<path d="M1415.56 72.121H1415.17C1406.78 72.121 1399.98 78.9145 1399.98 87.2947V89.8846C1399.98 98.2648 1406.78 105.058 1415.17 105.058H1415.56C1423.95 105.058 1430.75 98.2648 1430.75 89.8846V87.2947C1430.75 78.9145 1423.95 72.121 1415.56 72.121Z" fill="black"/>
</svg>
