<svg width="1327" height="400" viewBox="0 0 1327 400" fill="none" xmlns="http://www.w3.org/2000/svg">
<g clip-path="url(#clip0_1131_18134)">
<path d="M125.72 400H58.0165C41.9864 400 29.0083 387.439 29.0083 371.952H125.72V400Z" fill="black"/>
<path d="M29.0081 371.939H26.5797C11.9031 371.939 0.0131836 360.443 0.0131836 346.252V278.428H29.0214V371.939H29.0081Z" fill="black"/>
<path d="M1201.28 0H1268.98C1285.01 0 1297.99 12.5613 1297.99 28.0481H1201.28V0Z" fill="black"/>
<path d="M1297.99 28.061H1300.42C1315.1 28.061 1326.99 39.5574 1326.99 53.7482V121.572H1297.98V28.061H1297.99Z" fill="black"/>
<path d="M822.793 155.291C815.388 142.922 805.821 133.556 793.52 126.666C781.086 119.699 766.94 116.17 751.467 116.17C735.994 116.17 721.53 119.699 709.096 126.666C696.887 133.504 687.134 143.358 680.114 155.971C673.267 168.584 669.936 182.467 669.936 198.441C669.936 214.415 673.36 228.786 680.114 241.219C686.988 253.883 696.635 263.852 708.764 270.832C720.893 277.8 734.72 281.341 749.875 281.341C783.421 281.341 794.223 259.978 796.492 251.15C827.398 239.038 833.329 210.297 833.329 196.273C833.329 181.299 829.786 167.532 822.793 155.291ZM748.269 256.924C730.885 255.115 699.541 243.836 699.541 199.07C699.541 187.663 701.691 177.668 706.084 168.558C710.463 159.782 716.686 152.956 724.595 148.247C733.048 143.217 742.059 140.767 752.117 140.767C767.205 140.767 779.772 146.284 789.459 157.177C799.146 168.058 804.056 183.301 804.056 202.483C804.056 219.176 802.012 236.869 796.492 251.15C796.492 251.15 774.159 259.618 748.269 256.924Z" fill="black"/>
<path d="M606.81 141.69C605.019 122.111 585.698 116.183 577.258 116.183C547.401 116.183 526.354 143.82 522.586 153.674C519.268 143.397 513.522 134.813 505.454 128.128C495.9 120.212 482.55 116.196 471.47 116.196C440.909 116.196 422.158 140.574 416.956 150.557L415.245 119.301H388.32V278.249H417.262V186.688C423.379 171.317 443.191 140.767 468.564 140.767C476.486 140.767 483.293 144.372 488.787 151.468C494.294 158.858 497.399 168.199 497.399 179.221V278.249H526.341V183.134C535.259 167.801 543.937 157.164 552.841 150.634C561.759 144.09 571.95 140.138 583.097 139.509C595.252 138.829 606.797 141.703 606.797 141.703V278.249H635.739V182.082C635.739 160.552 626.835 146.951 606.797 141.703L606.81 141.69Z" fill="black"/>
<path d="M154.662 57.2125H125.72V278.223H154.662V57.2125Z" fill="black"/>
<path d="M339.208 152.507C332.573 140.959 323.549 132.221 311.606 125.806C299.557 119.326 286.128 116.183 270.549 116.183C254.97 116.183 239.935 119.634 227.514 126.447C214.961 133.479 205.234 143.205 198.625 155.355C191.818 167.583 188.368 181.774 188.368 197.543C188.368 227.849 209.334 245.299 225.205 251.15C232.57 276.337 256.456 281.341 274.53 281.341C317.246 281.341 344.383 248.468 347.17 232.532H317.551C311.261 246.082 293.957 254.55 270.124 256.244C260.61 256.924 241.912 258.091 225.218 251.15C219.579 237.408 218.252 222.191 218.252 207.269H348.842C348.842 207.269 349.16 202.188 349.16 191.91C349.16 177.257 345.816 164.003 339.208 152.507ZM219.38 189.062C221.224 174.011 226.466 162.476 235.397 153.854C244.579 144.975 255.965 140.651 270.217 140.651C284.469 140.651 296.81 145.283 305.966 154.431C314.459 163.528 318.944 175.179 319.316 189.062H219.38Z" fill="black"/>
<path d="M871.148 152.327V179.208C871.148 168.609 875.687 159.577 871.148 152.327Z" fill="black"/>
<path d="M988.588 141.69V278.236H1017.53V182.069C1017.53 160.539 1008.63 146.938 988.588 141.69Z" fill="black"/>
<path d="M959.022 116.183C925.701 114.079 903.541 140.497 899.772 150.351L898.06 119.288H871.148V278.236H900.09V186.675C920.42 141.678 953.728 140.112 964.861 139.484C977.016 138.804 988.561 141.678 988.561 141.678C986.77 122.098 967.436 116.709 959.009 116.17L959.022 116.183Z" fill="black"/>
<path d="M1169.03 121.379L1119.71 278.236L1070.41 121.379H1039.32L1088.63 278.236H1119.71L1095.72 350.152H1126.5L1199.85 121.379H1169.03Z" fill="black"/>
</g>
<defs>
<clipPath id="clip0_1131_18134">
<rect width="1327" height="400" fill="white"/>
</clipPath>
</defs>
</svg>
