<svg width="1552" height="401" viewBox="0 0 1552 401" fill="none" xmlns="http://www.w3.org/2000/svg">
<path d="M121.752 400.184H56.213C40.6899 400.184 28.125 387.63 28.125 372.121H121.721V400.184H121.752Z" fill="white"/>
<path d="M28.1239 372.152H25.7756C11.5639 372.152 0.0664062 360.635 0.0664062 346.466V278.642H28.1239V372.152Z" fill="white"/>
<path d="M1429.38 0.183594H1494.92C1510.44 0.183594 1523.01 12.7369 1523.01 28.2458H1429.41V0.183594H1429.38Z" fill="white"/>
<path d="M1523.01 28.2462H1525.36C1539.57 28.2462 1551.07 39.7636 1551.07 53.9318V121.756H1523.01V28.2462Z" fill="white"/>
<path d="M796.626 155.578C789.459 143.207 780.188 133.853 768.325 126.967C756.309 120.02 742.616 116.486 727.641 116.486C712.667 116.486 698.699 120.02 686.653 126.967C674.851 133.792 665.396 143.665 658.626 156.279C652.008 168.893 648.775 182.757 648.775 198.722C648.775 214.688 652.1 229.039 658.626 241.471C665.274 254.146 674.607 264.079 686.348 271.056C698.089 278.034 711.447 281.568 726.117 281.568C758.566 281.568 769.026 260.209 771.222 251.404C801.109 239.308 806.873 210.575 806.873 196.559C806.873 181.599 803.458 167.827 796.687 155.608L796.626 155.578ZM724.531 257.162C707.727 255.365 677.382 244.091 677.382 199.332C677.382 187.936 679.456 177.942 683.725 168.832C687.964 160.057 693.972 153.232 701.627 148.54C709.8 143.512 718.523 141.075 728.251 141.075C742.86 141.075 754.997 146.59 764.391 157.467C773.753 168.345 778.511 183.579 778.511 202.744C778.511 219.442 776.529 237.114 771.192 251.404C771.192 251.404 749.599 259.874 724.531 257.193V257.162Z" fill="white"/>
<path d="M587.689 141.958C585.951 122.397 567.256 116.456 559.083 116.456C530.202 116.456 509.829 144.091 506.2 153.933C502.998 143.665 497.417 135.072 489.64 128.4C480.4 120.478 467.499 116.456 456.764 116.456C427.212 116.456 409.066 140.831 404.034 150.795L402.387 119.564H376.343V278.461H404.339V186.931C410.256 171.575 429.439 141.044 453.958 141.044C461.613 141.044 468.201 144.64 473.538 151.739C478.875 159.143 481.863 168.467 481.863 179.466V278.461H509.86V183.366C518.491 168.04 526.877 157.406 535.508 150.886C544.139 144.335 553.989 140.405 564.786 139.765C576.557 139.094 587.72 141.958 587.72 141.958V278.461H615.716V182.33C615.716 160.819 607.116 147.23 587.72 141.958H587.689Z" fill="white"/>
<path d="M150.266 57.527H122.27V278.46H150.266V57.527Z" fill="white"/>
<path d="M1131.43 121.665L1083.73 278.46L1036 121.665H1004.71L1052.41 278.46H1083.73L1060.52 350.337H1091.81L1162.75 121.665H1131.43Z" fill="white"/>
<path d="M328.798 152.775C322.394 141.227 313.641 132.483 302.082 126.084C290.432 119.624 277.441 116.456 262.375 116.456C247.309 116.456 232.762 119.899 220.746 126.724C208.608 133.762 199.184 143.482 192.811 155.609C186.223 167.827 182.899 182.026 182.899 197.778C182.899 228.065 203.18 245.523 218.55 251.374C225.687 276.541 248.773 281.538 266.279 281.538C307.602 281.538 333.861 248.662 336.544 232.757H307.877C301.777 246.316 285.034 254.756 262.009 256.462C252.799 257.132 234.714 258.321 218.581 251.374C213.122 237.632 211.841 222.428 211.841 207.498H338.191C338.191 207.498 338.496 202.409 338.496 192.141C338.496 177.486 335.263 164.231 328.859 152.745L328.798 152.775ZM212.878 189.338C214.647 174.286 219.74 162.769 228.37 154.146C237.245 145.28 248.285 140.953 262.07 140.953C275.855 140.953 287.779 145.584 296.654 154.725C304.858 163.835 309.219 175.475 309.554 189.338H212.878Z" fill="white"/>
<path d="M843.409 152.62V179.494C843.409 168.891 847.801 159.872 843.409 152.62Z" fill="white"/>
<path d="M957.011 141.959V278.461H985.007V182.331C985.007 160.819 976.407 147.23 957.011 141.959Z" fill="white"/>
<path d="M928.405 116.485C896.169 114.383 874.73 140.8 871.101 150.641L869.454 119.593H843.409V278.49H871.406V186.961C891.076 141.988 923.282 140.404 934.078 139.794C945.85 139.124 957.012 141.988 957.012 141.988C955.273 122.427 936.578 117.034 928.405 116.485Z" fill="white"/>
<path fill-rule="evenodd" clip-rule="evenodd" d="M1226.58 165.935L1255.95 165.142C1255.95 165.142 1261.53 141.315 1296.75 141.315C1323.28 141.315 1333.99 155.819 1334.87 177.33C1334.91 178.262 1334.95 179.271 1334.98 180.347H1317.67C1256.74 180.347 1227.92 190.585 1219.53 211.517C1210.78 233.321 1220.76 247.013 1238.24 253.216C1242.07 269.471 1257.05 281.393 1284.86 281.048C1303.97 280.803 1321.5 269.189 1335.04 252.855L1336.49 278.488H1362.5V186.014C1362.5 132.967 1327.68 116.361 1290.68 116.361C1248.44 116.361 1226.58 145.246 1226.58 165.935ZM1335.21 198.043C1295.77 197.01 1251.03 198.656 1240.67 226.569C1237.21 235.873 1236.33 245.086 1238.24 253.216C1258.83 260.517 1289.82 257.441 1312.88 245.003C1335.42 232.837 1335.03 211.741 1334.89 204.185L1334.89 204.184C1334.89 204.1 1334.89 204.017 1334.89 203.937C1334.88 203.587 1334.87 203.269 1334.87 202.986C1334.87 202.418 1334.99 201.804 1335.22 201.153C1335.22 200.106 1335.22 199.069 1335.21 198.043Z" fill="white"/>
<path d="M1177.32 278.918C1188.37 278.918 1197.33 269.969 1197.33 258.93C1197.33 247.891 1188.37 238.942 1177.32 238.942C1166.27 238.942 1157.32 247.891 1157.32 258.93C1157.32 269.969 1166.27 278.918 1177.32 278.918Z" fill="white"/>
<path d="M1429.38 119.838H1401.45V278.248H1429.38V119.838Z" fill="white"/>
<path d="M1415.63 72.3046H1415.23C1406.84 72.3046 1400.04 79.0981 1400.04 87.4783V90.0682C1400.04 98.4484 1406.84 105.242 1415.23 105.242H1415.63C1424.02 105.242 1430.82 98.4484 1430.82 90.0682V87.4783C1430.82 79.0981 1424.02 72.3046 1415.63 72.3046Z" fill="white"/>
</svg>
